<svg width="18" height="18" viewBox="0 0 18 18" fill="none" xmlns="http://www.w3.org/2000/svg">
<path d="M7.66264 1C3.99086 1 1 3.99086 1 7.66264C1 11.3344 3.99086 14.3253 7.66264 14.3253C9.25935 14.3253 10.7257 13.7583 11.8749 12.8171L15.853 16.7951C15.9144 16.8591 15.9879 16.9101 16.0693 16.9453C16.1507 16.9805 16.2382 16.9991 16.3269 17C16.4155 17.0009 16.5035 16.9841 16.5855 16.9506C16.6676 16.9171 16.7422 16.8675 16.8048 16.8048C16.8675 16.7422 16.9171 16.6676 16.9506 16.5855C16.9841 16.5035 17.0009 16.4155 17 16.3269C16.9991 16.2382 16.9805 16.1507 16.9453 16.0693C16.9101 15.9879 16.8591 15.9144 16.7951 15.853L12.8171 11.8749C13.7583 10.7257 14.3253 9.25935 14.3253 7.66264C14.3253 3.99086 11.3344 1 7.66264 1ZM7.66264 2.33253C10.6143 2.33253 12.9928 4.71101 12.9928 7.66264C12.9928 10.6143 10.6143 12.9928 7.66264 12.9928C4.71101 12.9928 2.33253 10.6143 2.33253 7.66264C2.33253 4.71101 4.71101 2.33253 7.66264 2.33253Z" fill="#CABDAA"/>
</svg>
