<svg fill="none" height="73" viewBox="0 0 233 73" width="233" xmlns="http://www.w3.org/2000/svg"><path d="m11.748 20.376c1.848 0 3.432.2787 4.752.836 1.3493.528 2.6547 1.364 3.916 2.508l-1.584 1.716c-1.1147-.9973-2.2147-1.716-3.3-2.156s-2.3173-.66-3.696-.66c-1.87733 0-3.388.4693-4.532 1.408-1.144.9093-1.716 2.1413-1.716 3.696 0 1.056.20533 1.936.616 2.64.44.6747 1.15867 1.2907 2.156 1.848.99733.528 2.42 1.0707 4.268 1.628 1.9947.616 3.608 1.276 4.84 1.98s2.1853 1.6133 2.86 2.728 1.012 2.5227 1.012 4.224-.4107 3.212-1.232 4.532-1.9947 2.3467-3.52 3.08c-1.496.7333-3.2413 1.1-5.236 1.1-3.75467 0-6.96667-1.2613-9.636-3.784l1.584-1.716c1.144 1.056 2.34667 1.8627 3.608 2.42s2.728.836 4.4.836c2.1707 0 3.9307-.572 5.28-1.716 1.3787-1.144 2.068-2.6987 2.068-4.664 0-1.232-.2347-2.244-.704-3.036-.44-.792-1.1733-1.4667-2.2-2.024-.9973-.5867-2.42-1.1733-4.268-1.76-3.08-.9387-5.28-2.024-6.6-3.256s-1.98-2.904-1.98-5.016c0-1.408.36667-2.6693 1.1-3.784.76267-1.144 1.804-2.024 3.124-2.64 1.34933-.6453 2.8893-.968 4.62-.968zm17.5794 22.396-2.64 8.228h-2.684l10.076-30.14h3.3l10.032 30.14h-2.772l-2.64-8.228zm6.38-19.756-5.676 17.512h11.264zm34.1629 27.984-14.212-27.236c.2346 3.6667.352 7.128.352 10.384v16.852h-2.508v-30.14h3.388l14.3 27.236c-.2347-3.4027-.352-6.38-.352-8.932v-18.304h2.508v30.14zm20.9815-27.808v27.808h-2.596v-27.808h-8.9321v-2.332h20.6803l-.3082 2.332zm17.5612-.132v11.22h10.692v2.2h-10.692v12.32h12.98v2.2h-15.62v-30.14h15.312l-.308 2.2zm22.956 13.2v14.74h-2.64v-30.14h2.64v13.156h14.432v-13.156h2.64v30.14h-2.64v-14.74z" fill="#f7e0b5"/><path d="m167.225 24.248v26.752h-4.18v-26.752h-8.624v-3.564h21.648l-.44 3.564zm23.599-4.092c2.552 0 4.781.616 6.688 1.848 1.936 1.2027 3.432 2.9773 4.488 5.324 1.085 2.3467 1.628 5.192 1.628 8.536 0 3.2853-.543 6.1013-1.628 8.448-1.056 2.3467-2.552 4.136-4.488 5.368-1.907 1.232-4.136 1.848-6.688 1.848s-4.796-.6013-6.732-1.804c-1.907-1.2027-3.403-2.9773-4.488-5.324-1.056-2.3467-1.584-5.1773-1.584-8.492 0-3.256.528-6.072 1.584-8.448 1.085-2.376 2.596-4.18 4.532-5.412 1.936-1.2613 4.165-1.892 6.688-1.892zm0 3.432c-2.64 0-4.694.9973-6.16 2.992-1.467 1.9947-2.2 5.104-2.2 9.328 0 4.1947.733 7.2747 2.2 9.24 1.496 1.9653 3.549 2.948 6.16 2.948 5.573 0 8.36-4.0773 8.36-12.232 0-8.184-2.787-12.276-8.36-12.276zm28.044-2.904c3.755 0 6.659.792 8.712 2.376 2.054 1.5547 3.08 3.8867 3.08 6.996 0 3.3147-1.07 5.7787-3.212 7.392-2.141 1.6133-4.986 2.42-8.536 2.42h-3.828v11.132h-4.18v-30.316zm-.132 15.884c2.435 0 4.283-.4693 5.544-1.408 1.291-.9387 1.936-2.6253 1.936-5.06 0-2.1707-.645-3.74-1.936-4.708-1.261-.968-3.08-1.452-5.456-1.452h-3.74v12.628z" fill="#fbfbf1"/><path d="m6.522 67v-4.015c0-1.1367.02933-2.0643.088-2.783l-3.564 6.798h-.825v-7.535h.66v4.015c0 .9973-.02933 1.9287-.088 2.794l3.575-6.809h.814v7.535zm3.7934-2.706v2.706h-.63803v-5.753h.63803v2.508h2.86v-2.508h.638v5.753h-.638v-2.706zm7.4788-2.497v5.203h-.638v-5.203h-1.98v-.55h4.609l-.077.55zm7.3023 2.112c0 .1613-.0073.3153-.022.462h-3.839c.0367.748.2127 1.3053.528 1.672.3227.3593.7444.539 1.265.539.3007 0 .5647-.044.792-.132.2347-.0953.4877-.242.759-.44l.297.407c-.286.2347-.5793.4107-.88.528-.3006.1173-.6343.176-1.001.176-.7626 0-1.3603-.2603-1.793-.781-.4326-.5207-.649-1.243-.649-2.167 0-.6087.0917-1.1403.275-1.595.1907-.462.4584-.8177.803-1.067.352-.2567.759-.385 1.221-.385.7334 0 1.2907.2493 1.672.748.3814.4913.572 1.1697.572 2.035zm-.627-.198c0-.6453-.1356-1.1477-.407-1.507-.264-.3667-.66-.55-1.188-.55-.4693 0-.8543.1833-1.155.55-.2933.3667-.4583.924-.495 1.672h3.245zm4.951-2.585c.6966 0 1.2173.2603 1.562.781.352.5133.528 1.243.528 2.189 0 .924-.1907 1.661-.572 2.211-.374.5427-.913.814-1.617.814-.3447 0-.6564-.0697-.935-.209-.2787-.1467-.5134-.341-.704-.583v2.838l-.638.088v-8.008h.55l.055.836c.2126-.3007.4693-.5353.77-.704.3006-.1687.6343-.253 1.001-.253zm-.22 5.456c.528 0 .9313-.209 1.21-.627.2786-.418.418-1.0377.418-1.859 0-1.628-.5097-2.442-1.529-2.442-.3447 0-.6454.088-.902.264-.2494.176-.4877.418-.715.726v3.058c.1833.2787.4033.495.66.649.2566.154.5426.231.858.231zm4.9836-2.288v2.706h-.638v-5.753h.638v2.508h2.86v-2.508h.638v5.753h-.638v-2.706zm10.0198-.385c0 .1613-.0074.3153-.022.462h-3.839c.0366.748.2126 1.3053.528 1.672.3226.3593.7443.539 1.265.539.3006 0 .5646-.044.792-.132.2346-.0953.4876-.242.759-.44l.297.407c-.286.2347-.5794.4107-.88.528-.3007.1173-.6344.176-1.001.176-.7627 0-1.3604-.2603-1.793-.781-.4327-.5207-.649-1.243-.649-2.167 0-.6087.0916-1.1403.275-1.595.1906-.462.4583-.8177.803-1.067.352-.2567.759-.385 1.221-.385.7333 0 1.2906.2493 1.672.748.3813.4913.572 1.1697.572 2.035zm-.627-.198c0-.6453-.1357-1.1477-.407-1.507-.264-.3667-.66-.55-1.188-.55-.4694 0-.8544.1833-1.155.55-.2934.3667-.4584.924-.495 1.672h3.245zm4.1149-1.914v5.203h-.638v-5.203h-1.98v-.55h4.609l-.077.55zm5.8258 1.485v.55h-2.915v-.55zm6.7361 3.718-.297-3.355c-.044-.5427-.0734-1.122-.088-1.738l-1.606 4.378h-.605l-1.562-4.378c-.0147.616-.0404 1.1953-.077 1.738l-.275 3.355h-.616l.506-5.753h.814l1.518 4.389 1.573-4.389h.825l.517 5.753zm6.2279-1.276c0 .3007.0367.517.11.649.0807.132.2054.231.374.297l-.143.451c-.264-.0587-.4693-.1613-.616-.308-.1393-.1467-.231-.363-.275-.649-.418.638-1.0156.957-1.793.957-.55 0-.9863-.154-1.309-.462-.3153-.3153-.473-.7333-.473-1.254 0-.6013.209-1.0633.627-1.386.4254-.3227 1.012-.484 1.76-.484h1.1v-.55c0-.462-.1026-.7957-.308-1.001-.2053-.2127-.5463-.319-1.023-.319-.44 0-.9606.11-1.562.33l-.165-.484c.6454-.2567 1.2504-.385 1.815-.385 1.254 0 1.881.6087 1.881 1.826zm-2.233.88c.704 0 1.2357-.3447 1.595-1.034v-1.562h-1.001c-.5866 0-1.034.1137-1.342.341s-.462.5683-.462 1.023c0 .396.1064.7003.319.913.2127.2127.5097.319.891.319zm4.6655-5.357h3.399l-.077.55h-2.684v5.203h-.638zm8.1215 4.477c0 .3007.0367.517.11.649.0807.132.2053.231.374.297l-.143.451c-.264-.0587-.4693-.1613-.616-.308-.1393-.1467-.231-.363-.275-.649-.418.638-1.0157.957-1.793.957-.55 0-.9863-.154-1.309-.462-.3153-.3153-.473-.7333-.473-1.254 0-.6013.209-1.0633.627-1.386.4253-.3227 1.012-.484 1.76-.484h1.1v-.55c0-.462-.1027-.7957-.308-1.001-.2053-.2127-.5463-.319-1.023-.319-.44 0-.9607.11-1.562.33l-.165-.484c.6453-.2567 1.2503-.385 1.815-.385 1.254 0 1.881.6087 1.881 1.826zm-2.233.88c.704 0 1.2357-.3447 1.595-1.034v-1.562h-1.001c-.5867 0-1.034.1137-1.342.341s-.462.5683-.462 1.023c0 .396.1063.7003.319.913s.5097.319.891.319zm5.823-5.478c.5354 0 .979.1357 1.331.407.3594.264.539.627.539 1.089 0 .3593-.1026.649-.308.869-.198.2127-.495.3593-.891.44.4914.0513.8617.1907 1.111.418.2567.22.385.55.385.99 0 .572-.2053 1.012-.616 1.32-.4033.308-.9313.462-1.584.462-.4546 0-.8543-.066-1.199-.198-.3446-.132-.66-.3153-.946-.55l.352-.396c.2567.198.5207.3483.792.451.2787.1027.605.154.979.154.4694 0 .8434-.099 1.122-.297.286-.198.429-.517.429-.957 0-.3887-.1466-.6673-.44-.836-.2933-.1687-.7113-.253-1.254-.253h-.682l.044-.517h.55c.4694 0 .836-.0917 1.1-.275s.396-.4473.396-.792c0-.3227-.1136-.5683-.341-.737-.2273-.176-.539-.264-.935-.264-.33 0-.6123.0403-.847.121-.2346.0733-.484.1943-.748.363l-.319-.396c.2934-.2053.5977-.3593.913-.462.3154-.1027.671-.154 1.067-.154zm7.7047 5.874v-3.564c0-.462.022-.946.066-1.452l-2.86 5.016h-.759v-5.753h.638v3.377c0 .374-.022.913-.066 1.617l2.849-4.994h.759v5.753zm3.7048-2.706v2.706h-.638v-5.753h.638v2.508h2.86v-2.508h.638v5.753h-.638v-2.706zm11.0899-3.168c.33 0 .623.0477.88.143.257.088.506.2347.748.44l-.319.429c-.191-.1613-.389-.2787-.594-.352-.198-.0733-.425-.11-.682-.11-.543 0-.975.2127-1.298.638-.323.418-.484 1.0303-.484 1.837 0 .7993.158 1.4007.473 1.804.323.4033.755.605 1.298.605.257 0 .488-.0403.693-.121.213-.0807.422-.2053.627-.374l.319.44c-.484.4107-1.034.616-1.65.616-.491 0-.92-.1173-1.287-.352s-.653-.572-.858-1.012c-.198-.4473-.297-.979-.297-1.595 0-.6087.099-1.1403.297-1.595.205-.462.491-.8177.858-1.067s.792-.374 1.276-.374zm6.872 4.598c0 .3007.037.517.11.649.081.132.206.231.374.297l-.143.451c-.264-.0587-.469-.1613-.616-.308-.139-.1467-.231-.363-.275-.649-.418.638-1.015.957-1.793.957-.55 0-.986-.154-1.309-.462-.315-.3153-.473-.7333-.473-1.254 0-.6013.209-1.0633.627-1.386.426-.3227 1.012-.484 1.76-.484h1.1v-.55c0-.462-.102-.7957-.308-1.001-.205-.2127-.546-.319-1.023-.319-.44 0-.96.11-1.562.33l-.165-.484c.646-.2567 1.251-.385 1.815-.385 1.254 0 1.881.6087 1.881 1.826zm-2.233.88c.704 0 1.236-.3447 1.595-1.034v-1.562h-1.001c-.586 0-1.034.1137-1.342.341s-.462.5683-.462 1.023c0 .396.107.7003.319.913.213.2127.51.319.891.319zm5.304-2.31v2.706h-.638v-5.753h.638v2.508h2.86v-2.508h.638v5.753h-.638v-2.706zm7.479-2.497v5.203h-.638v-5.203h-1.98v-.55h4.609l-.077.55zm7.302 2.112c0 .1613-.007.3153-.022.462h-3.839c.037.748.213 1.3053.528 1.672.323.3593.744.539 1.265.539.301 0 .565-.044.792-.132.235-.0953.488-.242.759-.44l.297.407c-.286.2347-.579.4107-.88.528s-.634.176-1.001.176c-.763 0-1.36-.2603-1.793-.781s-.649-1.243-.649-2.167c0-.6087.092-1.1403.275-1.595.191-.462.458-.8177.803-1.067.352-.2567.759-.385 1.221-.385.733 0 1.291.2493 1.672.748.381.4913.572 1.1697.572 2.035zm-.627-.198c0-.6453-.136-1.1477-.407-1.507-.264-.3667-.66-.55-1.188-.55-.469 0-.854.1833-1.155.55-.293.3667-.458.924-.495 1.672h3.245zm5.46 3.289-1.661-2.673-1.65 2.673h-.737l2.024-3.058-1.76-2.695h.748l1.408 2.299 1.419-2.299h.726l-1.771 2.673 2.024 3.08zm2.804-2.706v2.706h-.638v-5.753h.638v2.508h2.86v-2.508h.638v5.753h-.638v-2.706zm9.492 2.706v-3.564c0-.462.022-.946.066-1.452l-2.86 5.016h-.759v-5.753h.638v3.377c0 .374-.022.913-.066 1.617l2.849-4.994h.759v5.753zm7.181 0h-.748l-1.87-2.805h-.858v2.805h-.638v-5.753h.638v2.442h.869l1.628-2.442h.704l-1.804 2.662zm5.038 0v-3.564c0-.462.022-.946.066-1.452l-2.86 5.016h-.759v-5.753h.638v3.377c0 .374-.022.913-.066 1.617l2.849-4.994h.759v5.753zm3.034-.924c.154 0 .279.0513.374.154.103.0953.154.2163.154.363 0 .1613-.055.363-.165.605l-.616 1.463h-.462l.44-1.617c-.081-.044-.143-.1063-.187-.187s-.066-.1687-.066-.264c0-.1467.051-.2677.154-.363.103-.1027.227-.154.374-.154zm6.241-1.782v2.706h-.638v-5.753h.638v2.508h2.86v-2.508h.638v5.753h-.638v-2.706zm9.513 1.43c0 .3007.037.517.11.649.081.132.206.231.374.297l-.143.451c-.264-.0587-.469-.1613-.616-.308-.139-.1467-.231-.363-.275-.649-.418.638-1.015.957-1.793.957-.55 0-.986-.154-1.309-.462-.315-.3153-.473-.7333-.473-1.254 0-.6013.209-1.0633.627-1.386.426-.3227 1.012-.484 1.76-.484h1.1v-.55c0-.462-.102-.7957-.308-1.001-.205-.2127-.546-.319-1.023-.319-.44 0-.96.11-1.562.33l-.165-.484c.646-.2567 1.251-.385 1.815-.385 1.254 0 1.881.6087 1.881 1.826zm-2.233.88c.704 0 1.236-.3447 1.595-1.034v-1.562h-1.001c-.586 0-1.034.1137-1.342.341s-.462.5683-.462 1.023c0 .396.107.7003.319.913.213.2127.51.319.891.319zm9.374.396-.297-3.355c-.044-.5427-.074-1.122-.088-1.738l-1.606 4.378h-.605l-1.562-4.378c-.015.616-.041 1.1953-.077 1.738l-.275 3.355h-.616l.506-5.753h.814l1.518 4.389 1.573-4.389h.825l.517 5.753zm7.243 0v-6.611l-1.804 1.122-.297-.473 2.189-1.353h.55v7.315zm3.609.088-.594-.198 2.816-6.666h-3.421v-.539h4.081v.495zm11.647-.088h-.638v-5.236h-2.222l-.176 2.156c-.066.8433-.136 1.4557-.209 1.837s-.194.671-.363.869-.436.3557-.803.473l-.176-.517c.242-.088.414-.2053.517-.352.11-.154.191-.3923.242-.715s.106-.8763.165-1.661l.22-2.607h3.443zm6.527-3.091c0 .1613-.007.3153-.022.462h-3.839c.037.748.213 1.3053.528 1.672.323.3593.744.539 1.265.539.301 0 .565-.044.792-.132.235-.0953.488-.242.759-.44l.297.407c-.286.2347-.579.4107-.88.528s-.634.176-1.001.176c-.763 0-1.36-.2603-1.793-.781s-.649-1.243-.649-2.167c0-.6087.092-1.1403.275-1.595.191-.462.458-.8177.803-1.067.352-.2567.759-.385 1.221-.385.733 0 1.291.2493 1.672.748.381.4913.572 1.1697.572 2.035zm-.627-.198c0-.6453-.136-1.1477-.407-1.507-.264-.3667-.66-.55-1.188-.55-.469 0-.854.1833-1.155.55-.293.3667-.458.924-.495 1.672h3.245zm4.115-1.914v5.203h-.638v-5.203h-1.98v-.55h4.609l-.077.55z" fill="#fbfbf1"/><path d="m2 10h147v2h-147z" fill="#f7e0b5"/><path d="m193 0 33 12-33-6.5-33 6.5z" fill="#fbfbf1"/></svg>